<svg xmlns="http://www.w3.org/2000/svg" viewBox="0 -0.5 5 5" shape-rendering="crispEdges">
<path stroke="#222" d="M1 0h1M0 1h1" />
<path stroke="#222" d="M2 0h1M0 2h1" />
<path stroke="#222" d="M3 0h1M0 3h1" />
<path stroke="#222" d="M1 1h1" />
<path stroke="#222" d="M2 1h1" />
<path stroke="#222" d="M3 1h1" />
<path stroke="#222" d="M4 1h1M1 4h1" />
<path stroke="#222" d="M1 2h1" />
<path stroke="#222" d="M2 2h1" />
<path stroke="#222" d="M3 2h1" />
<path stroke="#222" d="M4 2h1" />
<path stroke="#222" d="M1 3h1" />
<path stroke="#222" d="M2 3h1" />
<path stroke="#222" d="M3 3h1" />
<path stroke="#222" d="M4 3h1" />
<path stroke="#222" d="M2 4h1" />
<path stroke="#222" d="M3 4h1" />
</svg>